<svg width="38" height="31" viewBox="0 0 38 31" fill="none" xmlns="http://www.w3.org/2000/svg">
<path d="M25.1818 29V26C25.1818 24.4087 24.5305 22.8826 23.3712 21.7574C22.2119 20.6321 20.6395 20 19 20H8.18182C6.5423 20 4.96993 20.6321 3.81061 21.7574C2.6513 22.8826 2 24.4087 2 26V29M31.3636 9.5V18.5M36 14H26.7273M19.7727 8C19.7727 11.3137 17.005 14 13.5909 14C10.1768 14 7.40909 11.3137 7.40909 8C7.40909 4.68629 10.1768 2 13.5909 2C17.005 2 19.7727 4.68629 19.7727 8Z" stroke="#F5F5F5" stroke-width="4" stroke-linecap="round" stroke-linejoin="round"/>
</svg>
