<svg width="35" height="36" viewBox="0 0 35 36" fill="none" xmlns="http://www.w3.org/2000/svg">
<path d="M10.2083 16.5V10.5C10.2083 8.51088 10.9766 6.60322 12.344 5.1967C13.7115 3.79018 15.5661 3 17.5 3C19.4339 3 21.2885 3.79018 22.656 5.1967C24.0234 6.60322 24.7917 8.51088 24.7917 10.5V16.5M7.29167 16.5H27.7083C29.3192 16.5 30.625 17.8431 30.625 19.5V30C30.625 31.6569 29.3192 33 27.7083 33H7.29167C5.68084 33 4.375 31.6569 4.375 30V19.5C4.375 17.8431 5.68084 16.5 7.29167 16.5Z" stroke="#1E1E1E" stroke-width="4" stroke-linecap="round" stroke-linejoin="round"/>
</svg>
