<svg width="34" height="38" viewBox="0 0 34 38" fill="none" xmlns="http://www.w3.org/2000/svg">
<path d="M21.7222 30.4C20.4 30.4 19.2824 29.9408 18.3694 29.0225C17.4565 28.1042 17 26.98 17 25.65C17 24.32 17.4565 23.1958 18.3694 22.2775C19.2824 21.3592 20.4 20.9 21.7222 20.9C23.0444 20.9 24.162 21.3592 25.075 22.2775C25.988 23.1958 26.4444 24.32 26.4444 25.65C26.4444 26.98 25.988 28.1042 25.075 29.0225C24.162 29.9408 23.0444 30.4 21.7222 30.4ZM3.77778 38C2.73889 38 1.84954 37.6279 1.10972 36.8837C0.369907 36.1396 0 35.245 0 34.2V7.6C0 6.555 0.369907 5.66042 1.10972 4.91625C1.84954 4.17208 2.73889 3.8 3.77778 3.8H5.66667V0H9.44444V3.8H24.5556V0H28.3333V3.8H30.2222C31.2611 3.8 32.1505 4.17208 32.8903 4.91625C33.6301 5.66042 34 6.555 34 7.6V34.2C34 35.245 33.6301 36.1396 32.8903 36.8837C32.1505 37.6279 31.2611 38 30.2222 38H3.77778ZM3.77778 34.2H30.2222V15.2H3.77778V34.2ZM3.77778 11.4H30.2222V7.6H3.77778V11.4Z" fill="#1E1E1E"/>
</svg>
