<svg width="36" height="37" viewBox="0 0 36 37" fill="none" xmlns="http://www.w3.org/2000/svg">
<path d="M16.2 27.75H19.8V20.35H27V16.65H19.8V9.25H16.2V16.65H9V20.35H16.2V27.75ZM18 37C15.51 37 13.17 36.5221 10.98 35.5663C8.79 34.5796 6.885 33.2537 5.265 31.5887C3.645 29.9237 2.355 27.9658 1.395 25.715C0.465 23.4642 0 21.0592 0 18.5C0 15.9408 0.465 13.5358 1.395 11.285C2.355 9.03417 3.645 7.07625 5.265 5.41125C6.885 3.74625 8.79 2.43583 10.98 1.48C13.17 0.493333 15.51 0 18 0C20.49 0 22.83 0.493333 25.02 1.48C27.21 2.43583 29.115 3.74625 30.735 5.41125C32.355 7.07625 33.63 9.03417 34.56 11.285C35.52 13.5358 36 15.9408 36 18.5C36 21.0592 35.52 23.4642 34.56 25.715C33.63 27.9658 32.355 29.9237 30.735 31.5887C29.115 33.2537 27.21 34.5796 25.02 35.5663C22.83 36.5221 20.49 37 18 37ZM18 33.3C22.02 33.3 25.425 31.8662 28.215 28.9987C31.005 26.1312 32.4 22.6317 32.4 18.5C32.4 14.3683 31.005 10.8688 28.215 8.00125C25.425 5.13375 22.02 3.7 18 3.7C13.98 3.7 10.575 5.13375 7.785 8.00125C4.995 10.8688 3.6 14.3683 3.6 18.5C3.6 22.6317 4.995 26.1312 7.785 28.9987C10.575 31.8662 13.98 33.3 18 33.3Z" fill="#FEF7FF"/>
</svg>
