<svg width="48" height="49" viewBox="0 0 48 49" fill="none" xmlns="http://www.w3.org/2000/svg">
<path d="M0 40.8334V35.1678C0 34.0108 0.283333 32.939 0.85 31.9522C1.41667 30.9654 2.2 30.2167 3.2 29.7063C3.66667 29.4681 4.11667 29.247 4.55 29.0428C5.01667 28.8386 5.5 28.6515 6 28.4813V40.8334H0ZM8 26.5418C6.33333 26.5418 4.91667 25.9463 3.75 24.7553C2.58333 23.5643 2 22.1181 2 20.4167C2 18.7154 2.58333 17.2692 3.75 16.0782C4.91667 14.8872 6.33333 14.2917 8 14.2917C9.66667 14.2917 11.0833 14.8872 12.25 16.0782C13.4167 17.2692 14 18.7154 14 20.4167C14 22.1181 13.4167 23.5643 12.25 24.7553C11.0833 25.9463 9.66667 26.5418 8 26.5418ZM8 22.4584C8.56667 22.4584 9.03333 22.2713 9.4 21.897C9.8 21.4886 10 20.9952 10 20.4167C10 19.8383 9.8 19.3619 9.4 18.9876C9.03333 18.5792 8.56667 18.3751 8 18.3751C7.43333 18.3751 6.95 18.5792 6.55 18.9876C6.18333 19.3619 6 19.8383 6 20.4167C6 20.9952 6.18333 21.4886 6.55 21.897C6.95 22.2713 7.43333 22.4584 8 22.4584ZM8 40.8334V35.1167C8 33.9598 8.28333 32.9049 8.85 31.9522C9.45 30.9654 10.2333 30.2167 11.2 29.7063C13.2667 28.6515 15.3667 27.8688 17.5 27.3584C19.6333 26.814 21.8 26.5418 24 26.5418C26.2 26.5418 28.3667 26.814 30.5 27.3584C32.6333 27.8688 34.7333 28.6515 36.8 29.7063C37.7667 30.2167 38.5333 30.9654 39.1 31.9522C39.7 32.9049 40 33.9598 40 35.1167V40.8334H8ZM12 36.7501H36V35.1167C36 34.7424 35.9 34.4022 35.7 34.0959C35.5333 33.7897 35.3 33.5515 35 33.3813C33.2 32.4626 31.3833 31.782 29.55 31.3397C27.7167 30.8633 25.8667 30.6251 24 30.6251C22.1333 30.6251 20.2833 30.8633 18.45 31.3397C16.6167 31.782 14.8 32.4626 13 33.3813C12.7 33.5515 12.45 33.7897 12.25 34.0959C12.0833 34.4022 12 34.7424 12 35.1167V36.7501ZM24 24.5001C21.8 24.5001 19.9167 23.7004 18.35 22.1011C16.7833 20.5018 16 18.5792 16 16.3334C16 14.0876 16.7833 12.165 18.35 10.5657C19.9167 8.9664 21.8 8.16675 24 8.16675C26.2 8.16675 28.0833 8.9664 29.65 10.5657C31.2167 12.165 32 14.0876 32 16.3334C32 18.5792 31.2167 20.5018 29.65 22.1011C28.0833 23.7004 26.2 24.5001 24 24.5001ZM24 20.4167C25.1 20.4167 26.0333 20.0254 26.8 19.2428C27.6 18.4261 28 17.4563 28 16.3334C28 15.2105 27.6 14.2577 26.8 13.4751C26.0333 12.6584 25.1 12.2501 24 12.2501C22.9 12.2501 21.95 12.6584 21.15 13.4751C20.3833 14.2577 20 15.2105 20 16.3334C20 17.4563 20.3833 18.4261 21.15 19.2428C21.95 20.0254 22.9 20.4167 24 20.4167ZM40 26.5418C38.3333 26.5418 36.9167 25.9463 35.75 24.7553C34.5833 23.5643 34 22.1181 34 20.4167C34 18.7154 34.5833 17.2692 35.75 16.0782C36.9167 14.8872 38.3333 14.2917 40 14.2917C41.6667 14.2917 43.0833 14.8872 44.25 16.0782C45.4167 17.2692 46 18.7154 46 20.4167C46 22.1181 45.4167 23.5643 44.25 24.7553C43.0833 25.9463 41.6667 26.5418 40 26.5418ZM40 22.4584C40.5667 22.4584 41.0333 22.2713 41.4 21.897C41.8 21.4886 42 20.9952 42 20.4167C42 19.8383 41.8 19.3619 41.4 18.9876C41.0333 18.5792 40.5667 18.3751 40 18.3751C39.4333 18.3751 38.95 18.5792 38.55 18.9876C38.1833 19.3619 38 19.8383 38 20.4167C38 20.9952 38.1833 21.4886 38.55 21.897C38.95 22.2713 39.4333 22.4584 40 22.4584ZM42 40.8334V28.4813C42.5 28.6515 42.9667 28.8386 43.4 29.0428C43.8667 29.247 44.3333 29.4681 44.8 29.7063C45.8 30.2167 46.5833 30.9654 47.15 31.9522C47.7167 32.939 48 34.0108 48 35.1678V40.8334H42Z" fill="#1D1B20"/>
</svg>
