<svg width="29" height="28" viewBox="0 0 29 28" fill="none" xmlns="http://www.w3.org/2000/svg">
<path d="M14.4997 23.3334C13.8351 23.3334 13.2662 23.1049 12.7929 22.648C12.3196 22.1911 12.083 21.6417 12.083 21.0001C12.083 20.3584 12.3196 19.8091 12.7929 19.3522C13.2662 18.8952 13.8351 18.6667 14.4997 18.6667C15.1643 18.6667 15.7332 18.8952 16.2064 19.3522C16.6797 19.8091 16.9163 20.3584 16.9163 21.0001C16.9163 21.6417 16.6797 22.1911 16.2064 22.648C15.7332 23.1049 15.1643 23.3334 14.4997 23.3334ZM14.4997 16.3334C13.8351 16.3334 13.2662 16.1049 12.7929 15.648C12.3196 15.1911 12.083 14.6417 12.083 14.0001C12.083 13.3584 12.3196 12.8091 12.7929 12.3522C13.2662 11.8952 13.8351 11.6667 14.4997 11.6667C15.1643 11.6667 15.7332 11.8952 16.2064 12.3522C16.6797 12.8091 16.9163 13.3584 16.9163 14.0001C16.9163 14.6417 16.6797 15.1911 16.2064 15.648C15.7332 16.1049 15.1643 16.3334 14.4997 16.3334ZM14.4997 9.33342C13.8351 9.33342 13.2662 9.10494 12.7929 8.648C12.3196 8.19105 12.083 7.64175 12.083 7.00008C12.083 6.35841 12.3196 5.80911 12.7929 5.35216C13.2662 4.89522 13.8351 4.66675 14.4997 4.66675C15.1643 4.66675 15.7332 4.89522 16.2064 5.35216C16.6797 5.80911 16.9163 6.35841 16.9163 7.00008C16.9163 7.64175 16.6797 8.19105 16.2064 8.648C15.7332 9.10494 15.1643 9.33342 14.4997 9.33342Z" fill="#49454F"/>
</svg>
