<svg width="39" height="32" viewBox="0 0 39 32" fill="none" xmlns="http://www.w3.org/2000/svg">
<path d="M27.4545 30V26.8889C27.4545 25.2387 26.7841 23.656 25.5907 22.4891C24.3973 21.3222 22.7786 20.6667 21.0909 20.6667H8.36364C6.67589 20.6667 5.05728 21.3222 3.86387 22.4891C2.67045 23.656 2 25.2387 2 26.8889V30M37 30V26.8889C36.9989 25.5102 36.5297 24.171 35.6658 23.0814C34.802 21.9918 33.5925 21.2136 32.2273 20.8689M25.8636 2.20222C27.2325 2.54491 28.4457 3.32331 29.3122 4.41471C30.1786 5.5061 30.6488 6.8484 30.6488 8.23C30.6488 9.6116 30.1786 10.9539 29.3122 12.0453C28.4457 13.1367 27.2325 13.9151 25.8636 14.2578M21.0909 8.22222C21.0909 11.6587 18.2418 14.4444 14.7273 14.4444C11.2127 14.4444 8.36364 11.6587 8.36364 8.22222C8.36364 4.78578 11.2127 2 14.7273 2C18.2418 2 21.0909 4.78578 21.0909 8.22222Z" stroke="#1E1E1E" stroke-width="3" stroke-linecap="round" stroke-linejoin="round"/>
</svg>
